<?xml version="1.0" encoding="utf-8"?>
<svg viewBox="0 0 500 500" xmlns="http://www.w3.org/2000/svg">
  <defs>
    <style id="bx-google-fonts">@import url(https://fonts.googleapis.com/css?family=Monda:400,700);</style>
  </defs>
  <g transform="matrix(1, 0, 0, 1, 181.798889, -335.730774)">
    <path d="M 67.855 56.159 L 88.157 56.159 L 173.863 58.763 L 166.569 74.401 L 78.067 71.748 L 36.982 142.553 L 17.325 142.077 L 67.855 56.159 Z" style="fill: rgb(216, 216, 216);" transform="matrix(0.99928, -0.03795, 0.03795, 0.99928, -3.701712, 3.699379)"/>
    <rect transform="matrix(0.390728, -0.920506, 0.570093, 1.216258, 69.307139, 230.397428)" x="207.581" y="26.601" width="17.14" height="64.492" style="fill: rgb(117, 158, 164);"/>
    <path d="M 115.747 71.03 L 142.367 71.432 L 145.341 71.47 L 202.544 72.215 L 195.453 84.847 L 124.812 86.194 L 93.227 151.409 L 77.634 151.225 L 115.747 71.03 Z" style="fill: rgb(114, 93, 121);" transform="matrix(0.436804, 0.899557, -0.899557, 0.436804, 178.945886, -63.379607)"/>
    <path d="M 38.675 144.531 L 45.149 132.017 L 45.987 130.334 L 46.007 130.375 L 76.94 72.359 L 83.496 86.603 L 53.558 146.299 L 80.86 203.871 L 73.896 217.923 L 46.176 160.431 L 46.164 160.455 L 38.675 144.531 Z" style="fill: rgb(117, 158, 164);"/>
    <path d="M 80.706 141.235 L 196.104 141.235 L 213.341 86.135 L 226.889 86.135 L 205.355 154.971 L 205.237 154.971 L 205.237 155.162 L 80.706 155.319 L 80.706 141.235 Z" style="fill: rgb(216, 216, 216);"/>
    <path d="M 205.297 155.088 L 226.697 86.234 L 231.548 106.313 L 213.223 171.201 L 205.297 155.088 Z" style="fill: rgb(117, 158, 164);"/>
    <path d="M 163.066 103.759 L 181.033 103.907 L 122.321 222.42 L 105.699 222.795 L 163.066 103.759 Z" style="fill: rgb(114, 93, 121);" transform="matrix(0.436803, 0.899557, -0.899557, 0.436803, 227.620304, -37.008801)"/>
    <path d="M 96.791 109.021 L 146.243 108.022 L 93.242 258.271 L 75.382 258.271 L 126.311 119.96 L 104.28 120.232 L 88.952 155.272 L 73.358 155.42 L 96.791 109.021 Z" style="fill: rgb(216, 216, 216);"/>
    <path d="M 93.282 258.222 L 146.178 108.077 L 151.955 121.152 L 105.782 264.002 L 93.282 258.222 Z" style="fill: rgb(117, 158, 164);"/>
    <path d="M 94.401 125.233 L 117.31 125.233 L 117.203 125.437 L 190.845 125.447 L 182.043 143.047 L 100.975 142.765 L 47.633 251.883 L 30.991 252.257 L 94.401 125.233 Z" style="fill: rgb(114, 93, 121);" transform="matrix(-0.436804, -0.899557, 0.899557, -0.436804, -10.419412, 370.966591)"/>
    <path d="M 107.999 141.218 L 95.097 141.207 L 104.207 120.272 L 110.763 134.516 L 107.999 141.218 Z" style="fill: rgb(117, 158, 164);"/>
    <path d="M 116.735 114.783 L 127.528 125.911 L 123.016 135.217 L 107.348 134.998 L 116.735 114.783 Z" style="fill: rgb(114, 93, 121);" transform="matrix(0.436804, 0.899557, -0.899557, 0.436804, 178.585195, -35.242652)"/>
    <path d="M 80.859 203.881 L 201.112 203.154 L 195.365 218.228 L 73.898 217.933 L 80.859 203.881 Z" style="fill: rgb(216, 216, 216);"/>
    <path d="M 210.687 216.921 L 223.939 218.548 L 216.157 234.556 L 201.443 233.83 L 210.687 216.921 Z" style="fill: rgb(114, 93, 121);" transform="matrix(-0.436803, -0.899557, 0.899557, -0.436803, 102.530453, 515.669494)"/>
    <path d="M 208.269 204.868 L 224.55 203.515 L 218.803 218.589 L 201.308 218.92 L 208.269 204.868 Z" style="fill: rgb(216, 216, 216);"/>
    <path d="M 230.429 217.669 L 241.638 219.045 L 235.056 232.585 L 222.611 231.971 L 230.429 217.669 Z" style="fill: rgb(114, 93, 121);" transform="matrix(-0.436803, -0.899557, 0.899557, -0.436803, 131.00264, 532.272469)"/>
    <path d="M 228.384 207.474 L 242.155 206.33 L 237.294 219.079 L 222.497 219.359 L 228.384 207.474 Z" style="fill: rgb(216, 216, 216);"/>
    <path d="M 245.98 218.737 L 254.31 219.76 L 249.419 229.822 L 240.17 229.366 L 245.98 218.737 Z" style="fill: rgb(114, 93, 121);" transform="matrix(-0.436803, -0.899557, 0.899557, -0.436803, 153.483016, 544.651991)"/>
    <path d="M 244.46 211.161 L 254.695 210.31 L 251.082 219.785 L 240.085 219.993 L 244.46 211.161 Z" style="fill: rgb(216, 216, 216);"/>
    <path d="M 77.838 261.114 L 92.563 260.801 L 90.013 273.573 L 78.135 273.222 L 77.838 261.114 Z" style="fill: rgb(216, 216, 216);"/>
    <path d="M 90.053 273.524 L 92.806 260.548 L 100.9 266.064 L 96.579 278.085 L 90.053 273.524 Z" style="fill: rgb(117, 158, 164);"/>
    <path d="M 80.242 276.322 L 89.359 276.253 L 87.297 286.221 L 83.344 287.211 L 80.242 276.322 Z" style="fill: rgb(216, 216, 216);"/>
    <path d="M 87.215 286.05 L 89.602 276 L 94.77 279.078 L 89.717 288.782 L 87.215 286.05 Z" style="fill: rgb(117, 158, 164);"/>
  </g>
  <path d="M 195.568 152.429 L 338.014 152.429 L 377.888 24.966 L 409.229 24.966 L 359.414 184.204 L 359.142 184.204 L 359.142 184.646 L 184.127 184.866 L 144.604 296.906 L 349.599 295.666 L 336.305 330.537 L 132.915 330.042 L 100.064 423.168 L 58.748 423.168 L 93.075 329.947 L 55.315 329.854 L 71.418 297.348 L 105.153 297.144 L 146.478 184.914 L 79.85 184.998 L 54.066 185.243 L 108.274 77.908 L 222.671 75.597 Z M 104.343 152.429 L 158.44 152.429 L 176.562 103.213 L 125.598 103.843 Z M 366.155 299.631 L 403.818 296.501 L 390.524 331.372 L 350.053 332.137 Z M 412.687 305.659 L 444.544 303.013 L 433.299 332.505 L 399.069 333.153 Z M 64.43 429.745 L 98.493 429.021 L 92.594 458.566 L 65.117 457.754 Z M 449.876 314.188 L 473.553 312.22 L 465.195 334.138 L 439.755 334.62 Z M 69.991 464.925 L 91.081 464.766 L 86.311 487.825 L 77.167 490.115 Z" style="fill: rgb(153, 0, 0);"/>
  <text x="112.91" y="384.277" style="font-family: Monda; font-size: 36px; white-space: pre;" transform="matrix(1, 0, 0, 1.000001, 277.342804, 209.665665)">quantum blox</text>
  <path d="M 716.462 169.561 L 778.039 169.561 L 795.276 114.461 L 808.824 114.461 L 787.29 183.297 L 787.172 183.297 L 787.172 183.488 L 711.516 183.583 L 694.431 232.016 L 783.047 231.48 L 777.3 246.554 L 689.378 246.34 L 675.177 286.597 L 657.317 286.597 L 672.156 246.299 L 655.833 246.259 L 662.794 232.207 L 677.377 232.119 L 695.241 183.604 L 666.439 183.64 L 655.293 183.746 L 678.726 137.347 L 728.178 136.348 Z M 648.171 85.569 L 668.458 84.798 L 754.201 84.148 L 747.506 100.051 L 658.967 100.759 L 620.599 173.072 L 600.938 173.343 Z M 677.027 169.561 L 700.412 169.561 L 708.246 148.286 L 686.215 148.558 Z M 790.204 233.194 L 806.485 231.841 L 800.738 246.915 L 783.243 247.246 Z M 810.319 235.8 L 824.09 234.656 L 819.229 247.405 L 804.432 247.685 Z M 659.773 289.44 L 674.498 289.127 L 671.948 301.899 L 660.07 301.548 Z M 826.395 239.487 L 836.63 238.636 L 833.017 248.111 L 822.02 248.319 Z M 662.177 304.648 L 671.294 304.579 L 669.232 314.547 L 665.279 315.537 Z" style="fill: rgb(153, 0, 0);"/>
</svg>