<?xml version="1.0" encoding="utf-8"?>
<svg viewBox="0 0 500 500" xmlns="http://www.w3.org/2000/svg">
  <g transform="matrix(1.98595, 0, 0, 1.98595, -21.752853, -85.055107)">
    <path d="M 67.855 56.159 L 88.157 56.159 L 173.863 58.763 L 166.569 74.401 L 78.067 71.748 L 36.982 142.553 L 17.325 142.077 L 67.855 56.159 Z" style="fill: rgb(216, 216, 216);" transform="matrix(0.99928, -0.03795, 0.03795, 0.99928, -3.701712, 3.699379)"/>
    <rect transform="matrix(0.390728, -0.920506, 0.570093, 1.216258, 69.307139, 230.397428)" x="207.581" y="26.601" width="17.14" height="64.492" style="fill: rgb(117, 158, 164);"/>
    <path d="M 115.747 71.03 L 142.367 71.432 L 145.341 71.47 L 202.544 72.215 L 195.453 84.847 L 124.812 86.194 L 93.227 151.409 L 77.634 151.225 L 115.747 71.03 Z" style="fill: rgb(114, 93, 121);" transform="matrix(0.436804, 0.899557, -0.899557, 0.436804, 178.945886, -63.379607)"/>
    <path d="M 38.675 144.531 L 45.149 132.017 L 45.987 130.334 L 46.007 130.375 L 76.94 72.359 L 83.496 86.603 L 53.558 146.299 L 80.86 203.871 L 73.896 217.923 L 46.176 160.431 L 46.164 160.455 L 38.675 144.531 Z" style="fill: rgb(117, 158, 164);"/>
    <path d="M 80.706 141.235 L 196.104 141.235 L 213.341 86.135 L 226.889 86.135 L 205.355 154.971 L 205.237 154.971 L 205.237 155.162 L 80.706 155.319 L 80.706 141.235 Z" style="fill: rgb(216, 216, 216);"/>
    <path d="M 205.297 155.088 L 226.697 86.234 L 231.548 106.313 L 213.223 171.201 L 205.297 155.088 Z" style="fill: rgb(117, 158, 164);"/>
    <path d="M 163.066 103.759 L 181.033 103.907 L 122.321 222.42 L 105.699 222.795 L 163.066 103.759 Z" style="fill: rgb(114, 93, 121);" transform="matrix(0.436803, 0.899557, -0.899557, 0.436803, 227.620304, -37.008801)"/>
    <path d="M 96.791 109.021 L 146.243 108.022 L 93.242 258.271 L 75.382 258.271 L 126.311 119.96 L 104.28 120.232 L 88.952 155.272 L 73.358 155.42 L 96.791 109.021 Z" style="fill: rgb(216, 216, 216);"/>
    <path d="M 93.282 258.222 L 146.178 108.077 L 151.955 121.152 L 105.782 264.002 L 93.282 258.222 Z" style="fill: rgb(117, 158, 164);"/>
    <path d="M 94.401 125.233 L 117.31 125.233 L 117.203 125.437 L 190.845 125.447 L 182.043 143.047 L 100.975 142.765 L 47.633 251.883 L 30.991 252.257 L 94.401 125.233 Z" style="fill: rgb(114, 93, 121);" transform="matrix(-0.436804, -0.899557, 0.899557, -0.436804, -10.419412, 370.966591)"/>
    <path d="M 107.999 141.218 L 95.097 141.207 L 104.207 120.272 L 110.763 134.516 L 107.999 141.218 Z" style="fill: rgb(117, 158, 164);"/>
    <path d="M 116.735 114.783 L 127.528 125.911 L 123.016 135.217 L 107.348 134.998 L 116.735 114.783 Z" style="fill: rgb(114, 93, 121);" transform="matrix(0.436804, 0.899557, -0.899557, 0.436804, 178.585195, -35.242652)"/>
    <path d="M 80.859 203.881 L 201.112 203.154 L 195.365 218.228 L 73.898 217.933 L 80.859 203.881 Z" style="fill: rgb(216, 216, 216);"/>
    <path d="M 210.687 216.921 L 223.939 218.548 L 216.157 234.556 L 201.443 233.83 L 210.687 216.921 Z" style="fill: rgb(114, 93, 121);" transform="matrix(-0.436803, -0.899557, 0.899557, -0.436803, 102.530453, 515.669494)"/>
    <path d="M 208.269 204.868 L 224.55 203.515 L 218.803 218.589 L 201.308 218.92 L 208.269 204.868 Z" style="fill: rgb(216, 216, 216);"/>
    <path d="M 230.429 217.669 L 241.638 219.045 L 235.056 232.585 L 222.611 231.971 L 230.429 217.669 Z" style="fill: rgb(114, 93, 121);" transform="matrix(-0.436803, -0.899557, 0.899557, -0.436803, 131.00264, 532.272469)"/>
    <path d="M 228.384 207.474 L 242.155 206.33 L 237.294 219.079 L 222.497 219.359 L 228.384 207.474 Z" style="fill: rgb(216, 216, 216);"/>
    <path d="M 245.98 218.737 L 254.31 219.76 L 249.419 229.822 L 240.17 229.366 L 245.98 218.737 Z" style="fill: rgb(114, 93, 121);" transform="matrix(-0.436803, -0.899557, 0.899557, -0.436803, 153.483016, 544.651991)"/>
    <path d="M 244.46 211.161 L 254.695 210.31 L 251.082 219.785 L 240.085 219.993 L 244.46 211.161 Z" style="fill: rgb(216, 216, 216);"/>
    <path d="M 77.838 261.114 L 92.563 260.801 L 90.013 273.573 L 78.135 273.222 L 77.838 261.114 Z" style="fill: rgb(216, 216, 216);"/>
    <path d="M 90.053 273.524 L 92.806 260.548 L 100.9 266.064 L 96.579 278.085 L 90.053 273.524 Z" style="fill: rgb(117, 158, 164);"/>
    <path d="M 80.242 276.322 L 89.359 276.253 L 87.297 286.221 L 83.344 287.211 L 80.242 276.322 Z" style="fill: rgb(216, 216, 216);"/>
    <path d="M 87.215 286.05 L 89.602 276 L 94.77 279.078 L 89.717 288.782 L 87.215 286.05 Z" style="fill: rgb(117, 158, 164);"/>
  </g>
</svg>