<?xml version="1.0" encoding="utf-8"?>
<svg viewBox="0 0 500 500" xmlns="http://www.w3.org/2000/svg">
  <path d="M 250.954 203.121 L 366.139 203.121 L 398.382 100.052 L 423.725 100.052 L 383.444 228.815 L 383.223 228.815 L 383.223 229.173 L 241.702 229.35 L 209.743 319.948 L 375.507 318.946 L 364.757 347.143 L 200.291 346.743 L 173.727 422.047 L 140.319 422.047 L 168.076 346.666 L 137.543 346.591 L 150.564 320.306 L 177.842 320.141 L 211.259 229.39 L 157.382 229.457 L 136.533 229.655 L 180.366 142.862 L 272.87 140.993 Z M 123.21 46.007 L 161.159 44.565 L 321.548 43.349 L 309.025 73.097 L 143.405 74.421 L 71.635 209.689 L 34.857 210.196 Z M 177.188 203.121 L 220.931 203.121 L 235.585 163.324 L 194.375 163.833 Z M 388.895 322.152 L 419.35 319.621 L 408.599 347.818 L 375.874 348.437 Z M 426.522 327.027 L 452.281 324.887 L 443.188 348.735 L 415.509 349.259 Z M 144.913 427.365 L 172.457 426.779 L 167.687 450.67 L 145.468 450.014 Z M 456.593 333.923 L 475.738 332.332 L 468.98 350.055 L 448.409 350.444 Z M 149.41 455.813 L 166.464 455.683 L 162.607 474.329 L 155.212 476.181 Z" style="fill: rgb(153, 0, 0);"/>
</svg>